<svg width="113" height="17" viewBox="0 0 113 17" fill="none" xmlns="http://www.w3.org/2000/svg">
<path d="M9.95182 0.436297L0.254517 16.999H3.48841L6.31451 12.1949H15.023L17.8864 16.999H21.2913L11.4537 0.436102H9.95226L9.95182 0.436297ZM13.5611 9.62116H7.83192L10.7034 4.74157L13.5611 9.62116ZM43.8295 0.436297L36.3093 12.6376L28.84 0.436297H27.5319L24.6019 17H27.5389L29.369 6.68326L35.6855 17H36.9427L43.3055 6.70373L45.0737 17H48.0105L45.1809 0.436297H43.8295ZM60.8597 0.436297L51.1626 16.999H54.3963L57.2224 12.1949H65.9304L68.7943 16.999H72.1992L62.362 0.436102H60.8597V0.436297ZM64.4692 9.62116H58.7402L61.6115 4.74157L64.4692 9.62116ZM85.534 9.46714C86.6245 9.11273 87.4787 8.57584 88.0742 7.87324C88.6949 7.13964 88.9766 5.85902 88.9766 4.97901C88.9766 3.86 88.5355 2.90378 87.6655 2.13665C86.8124 1.38336 85.6932 0.886631 84.3411 0.65932C83.4483 0.508039 82.5926 0.436297 80.1493 0.436297H75.4833V16.9996H78.3839V10.0087H80.1578L86.1805 17H89.9867L83.8164 9.87069C84.3202 9.77224 85.0834 9.61336 85.534 9.46714ZM85.6134 6.37232C85.2972 6.73181 84.8466 6.99811 84.2744 7.16479C83.6719 7.34083 82.7132 7.42836 81.4273 7.42836L78.3841 7.41043V3.01587H81.5062C82.8316 3.01587 83.782 3.09834 84.3362 3.26034C84.869 3.4163 85.2845 3.66778 85.6101 4.02649C85.9264 4.37857 86.0808 4.75541 86.0808 5.18235C86.0812 5.62352 85.9295 6.01322 85.6134 6.37232ZM109.609 2.44974C107.692 0.823857 105.277 0 102.436 0C100.681 0 99.024 0.378202 97.515 1.12622C96.0026 1.87483 94.793 2.92424 93.9171 4.24425C93.0428 5.56698 92.5966 7.02053 92.5966 8.56804C92.5966 10.893 93.5723 12.9004 95.4942 14.537C97.4132 16.1697 99.7989 16.9982 102.583 16.9982C105.336 16.9982 107.702 16.1646 109.618 14.5257C111.536 12.8829 112.509 10.8534 112.509 8.49396C112.509 6.11265 111.532 4.07932 109.609 2.44993V2.44974ZM109.669 8.48869C109.669 9.6309 109.355 10.6811 108.738 11.6133C108.121 12.545 107.25 13.2899 106.147 13.827C105.04 14.3664 103.818 14.6403 102.518 14.6403C100.571 14.6403 98.8855 14.0469 97.5082 12.8749C96.1348 11.7083 95.4378 10.2571 95.4378 8.56063C95.4378 7.41355 95.7516 6.35867 96.374 5.42662C96.9951 4.49359 97.8721 3.74128 98.9809 3.19035C100.09 2.63767 101.28 2.35792 102.519 2.35792C103.779 2.35792 104.99 2.63806 106.115 3.19113C107.241 3.74303 108.124 4.48755 108.741 5.40186C109.357 6.315 109.669 7.3537 109.669 8.48869Z" fill="white"/>
</svg>
