<svg width="280" height="48" viewBox="0 0 280 48" fill="none" xmlns="http://www.w3.org/2000/svg">
<path d="M24.1883 1.2319L0 47.9972H8.06641L15.1156 34.4326H36.8375L43.9797 47.9972H52.4727L27.9344 1.23135H24.1894L24.1883 1.2319ZM33.1909 27.1656H18.9005L26.063 13.3879L33.1909 27.1656ZM108.69 1.2319L89.9325 35.6827L71.3016 1.2319H68.0389L60.7305 48H68.0564L72.6212 18.8704L88.3766 48H91.5124L107.383 18.9282L111.794 48H119.119L112.061 1.2319H108.69ZM151.169 1.2319L126.982 47.9972H135.048L142.097 34.4326H163.818L170.961 47.9972H179.454L154.917 1.23135H151.169V1.2319ZM160.173 27.1656H145.883L153.045 13.3879L160.173 27.1656ZM212.715 26.7308C215.435 25.7301 217.566 24.2141 219.051 22.2303C220.6 20.159 221.302 16.5431 221.302 14.0584C221.302 10.8988 220.202 8.19889 218.032 6.03289C215.904 3.90597 213.112 2.50343 209.74 1.86161C207.513 1.43446 205.378 1.2319 199.284 1.2319H187.645V47.9989H194.881V28.2599H199.305L214.328 48H223.822L208.431 27.8702C209.688 27.5922 211.591 27.1436 212.715 26.7308ZM212.913 17.9924C212.125 19.0075 211.001 19.7594 209.573 20.23C208.071 20.727 205.679 20.9742 202.472 20.9742L194.881 20.9236V8.5154H202.669C205.974 8.5154 208.345 8.74824 209.728 9.20566C211.057 9.64602 212.093 10.3561 212.905 11.3689C213.694 12.363 214.079 13.427 214.079 14.6325C214.08 15.8782 213.702 16.9785 212.913 17.9924ZM272.766 6.91691C267.984 2.32618 261.96 0 254.875 0C250.497 0 246.364 1.06787 242.6 3.17993C238.827 5.29364 235.81 8.25669 233.626 11.9838C231.445 15.7185 230.332 19.8227 230.332 24.1921C230.332 30.7567 232.765 36.4247 237.559 41.0457C242.346 45.6557 248.297 47.995 255.242 47.995C262.109 47.995 268.01 45.6413 272.788 41.0137C277.574 36.3751 280 30.645 280 23.9829C280 17.2592 277.564 11.5181 272.766 6.91746V6.91691ZM272.915 23.9681C272.915 27.1931 272.132 30.1584 270.594 32.7906C269.056 35.4212 266.881 37.5245 264.13 39.0409C261.37 40.564 258.322 41.3374 255.08 41.3374C250.224 41.3374 246.018 39.6618 242.583 36.3526C239.157 33.0587 237.419 28.9612 237.419 24.1712C237.419 20.9324 238.201 17.9539 239.754 15.3222C241.303 12.6878 243.491 10.5636 246.256 9.00805C249.023 7.44754 251.99 6.65765 255.082 6.65765C258.225 6.65765 261.244 7.44864 264.052 9.01025C266.859 10.5686 269.061 12.6707 270.6 15.2523C272.138 17.8306 272.915 20.7634 272.915 23.9681Z" fill="black"/>
</svg>
